<svg version="1.1" xmlns="http://www.w3.org/2000/svg" xmlns:xlink="http://www.w3.org/1999/xlink" width="36px" height="36px" viewBox="0,0,256,256"><g transform="translate(38.4,38.4) scale(0.7,0.7)"><g fill="none" fill-rule="nonzero" stroke="none" stroke-width="1" stroke-linecap="butt" stroke-linejoin="miter" stroke-miterlimit="10" stroke-dasharray="" stroke-dashoffset="0" font-family="none" font-weight="none" font-size="none" text-anchor="none" style="mix-blend-mode: normal"><g transform="scale(7.11111,7.11111)"><path d="M23.142,3.403c-1.65,-1.504 -3.43,-2.403 -5.142,-2.403c-5.625,0 -12,9.611 -12,19c0,0.975 0.079,1.899 0.202,2.791c1.059,7.693 6.421,12.209 11.798,12.209c6,0 12,-5.611 12,-15c0,-6.531 -3.086,-13.161 -6.858,-16.597z" fill="#f7dece"></path><path d="M23.142,3.403c2.908,3.519 5.108,9.018 5.108,14.453c0,9.009 -5.672,14.393 -11.344,14.393c-4.541,0 -9.075,-3.459 -10.705,-9.459c1.06,7.694 6.422,12.21 11.799,12.21c6,0 12,-5.611 12,-15c0,-6.531 -3.086,-13.161 -6.858,-16.597z" fill="#e0aa94"></path></g></g></g></svg>