<svg version="1.1" xmlns="http://www.w3.org/2000/svg" xmlns:xlink="http://www.w3.org/1999/xlink" width="36px" height="36px" viewBox="0,0,256,256"><g transform="translate(38.4,38.4) scale(0.7,0.7)"><g fill="none" fill-rule="nonzero" stroke="none" stroke-width="1" stroke-linecap="butt" stroke-linejoin="miter" stroke-miterlimit="10" stroke-dasharray="" stroke-dashoffset="0" font-family="none" font-weight="none" font-size="none" text-anchor="none" style="mix-blend-mode: normal"><g transform="translate(-1.97682,0.45113) scale(7.11111,7.11111)"><path d="M17.5,35c-0.128,0 -0.256,-0.049 -0.354,-0.146c-0.195,-0.195 -0.195,-0.512 0,-0.707l1.854,-1.854v-2.793c0,-0.276 0.224,-0.5 0.5,-0.5c0.276,0 0.5,0.224 0.5,0.5v3.207l-2.146,2.146c-0.098,0.098 -0.226,0.147 -0.354,0.147z" fill="#66757f"></path><path d="M19.5,33h-3c-0.276,0 -0.5,-0.224 -0.5,-0.5c0,-0.276 0.224,-0.5 0.5,-0.5h3c0.276,0 0.5,0.224 0.5,0.5c0,0.276 -0.224,0.5 -0.5,0.5zM22.5,35c-0.128,0 -0.256,-0.049 -0.354,-0.146c-0.195,-0.195 -0.195,-0.512 0,-0.707l1.854,-1.854v-2.793c0,-0.276 0.224,-0.5 0.5,-0.5c0.276,0 0.5,0.224 0.5,0.5v3.207l-2.146,2.146c-0.098,0.098 -0.226,0.147 -0.354,0.147z" fill="#66757f"></path><path d="M24.5,33h-3c-0.276,0 -0.5,-0.224 -0.5,-0.5c0,-0.276 0.224,-0.5 0.5,-0.5h3c0.276,0 0.5,0.224 0.5,0.5c0,0.276 -0.224,0.5 -0.5,0.5z" fill="#66757f"></path><path d="M3.53,13.798c0.845,0.452 3.813,-1.411 4.36,-3.308c0.547,-1.897 -1.021,-2.116 -2.882,-1.24c-1.861,0.876 -2.208,4.157 -1.478,4.548z" fill="#f4900c"></path><path d="M6.325,4c-2.555,1 -4.278,3.378 -4.294,6.088c-0.016,2.699 1.219,4.423 2.594,4.047c0.376,-0.103 -0.303,-1.922 0.85,-4.371c0.57,-1.207 1.303,-1.35 1.675,-1.313c0.373,0.036 0.443,-4.947 -0.825,-4.451z" fill="#ffac33"></path><path d="M34.525,31.384c-0.014,0.499 -1.916,0.822 -5.592,-3.599c-2.927,3.09 -7.374,3.182 -11.821,1.422c-4.999,-1.979 -8.383,-6.924 -7.701,-13.976c0.382,-3.954 -5.228,-3.587 -5.081,-8.899c0.111,-3.995 3.513,-5.535 6.374,-5.456c4.74,0.131 6.82,5.293 8.052,6.561c6.494,6.688 15.81,22.47 15.769,23.947z" fill="#77b255"></path><path d="M28.932,27.785c-2.927,3.09 -7.374,3.182 -11.821,1.422c-4.999,-1.979 -8.383,-6.924 -7.701,-13.976c0.036,4.343 1.559,7.582 2.94,8.416c-0.58,-2.79 0.117,-7.062 0.784,-7.779c1.591,9.402 10.022,14.78 15.798,11.917z" fill="#ea596e"></path><path d="M13.135,15.867c0,0 1.737,5.788 7.33,9.387c5.593,3.599 8.468,2.53 8.468,2.53c0,0 -2.939,3.363 -7.647,2.084c-4.708,-1.279 -9.321,-5.997 -8.151,-14.001z" fill="#3b88c3"></path><path d="M16.938,9.417c-2.504,-0.588 -6.666,7.123 -1.009,13.392c7.436,8.241 13.004,4.976 13.004,4.976c0,0 -4.148,-16.526 -11.995,-18.368z" fill="#5c913b"></path><circle cx="8" cy="6" r="1" fill="#292f33"></circle><path d="M10.724,13.259c-0.79,0 -1.509,-0.189 -1.976,-0.45c-0.248,-0.139 -0.336,-0.453 -0.198,-0.701c0.14,-0.248 0.454,-0.336 0.701,-0.198c0.665,0.373 2.406,0.63 3.614,-0.423c0.213,-0.187 0.539,-0.165 0.726,0.05c0.187,0.214 0.164,0.54 -0.05,0.726c-0.836,0.729 -1.877,0.996 -2.817,0.996z" fill="#5c913b"></path></g></g></g></svg>