<svg width="33" height="34" viewBox="0 0 33 34" fill="none" xmlns="http://www.w3.org/2000/svg">
<path d="M1.49919 12.9596C2.34419 13.4116 5.31219 11.5486 5.85919 9.65162C6.40619 7.75462 4.83819 7.53562 2.97719 8.41162C1.11619 9.28762 0.769191 12.5686 1.49919 12.9596Z" fill="#DF4545"/>
<path d="M4.29415 3.16161C1.73915 4.16161 0.0161538 6.53961 0.000153769 9.24961C-0.0158462 11.9486 1.21915 13.6726 2.59415 13.2966C2.97015 13.1936 2.29115 11.3746 3.44415 8.92561C4.01415 7.71861 4.74715 7.57561 5.11915 7.61261C5.49215 7.64861 5.56215 2.66561 4.29415 3.16161Z" fill="#BC2828"/>
<path d="M15.5 34C15.372 34 15.244 33.951 15.146 33.854C14.951 33.659 14.951 33.342 15.146 33.147L17 31.293V28.5C17 28.224 17.224 28 17.5 28C17.776 28 18 28.224 18 28.5V31.707L15.854 33.853C15.756 33.951 15.628 34 15.5 34Z" fill="#66757F"/>
<path d="M17.5 32H14.5C14.224 32 14 31.776 14 31.5C14 31.224 14.224 31 14.5 31H17.5C17.776 31 18 31.224 18 31.5C18 31.776 17.776 32 17.5 32ZM20.5 34C20.372 34 20.244 33.951 20.146 33.854C19.951 33.659 19.951 33.342 20.146 33.147L22 31.293V28.5C22 28.224 22.224 28 22.5 28C22.776 28 23 28.224 23 28.5V31.707L20.854 33.853C20.756 33.951 20.628 34 20.5 34Z" fill="#66757F"/>
<path d="M22.5 32H19.5C19.224 32 19 31.776 19 31.5C19 31.224 19.224 31 19.5 31H22.5C22.776 31 23 31.224 23 31.5C23 31.776 22.776 32 22.5 32Z" fill="#66757F"/>
<path d="M32.525 30.5109C32.511 31.0099 30.609 31.3329 26.933 26.9119C24.006 30.0019 19.559 30.0939 15.112 28.3339C10.113 26.3549 6.72899 21.4099 7.41099 14.3579C7.79299 10.4039 2.18299 10.7709 2.32999 5.45888C2.44099 1.46388 5.84299 -0.0761209 8.70399 0.00287911C13.444 0.133879 15.524 5.29588 16.756 6.56388C23.25 13.2519 32.566 29.0339 32.525 30.5109Z" fill="#E69428"/>
<path d="M26.932 26.9119C24.005 30.0019 19.558 30.0939 15.111 28.3339C10.112 26.3549 6.72799 21.4099 7.40999 14.3579C7.44599 18.7009 8.96899 21.9399 10.35 22.7739C9.76999 19.9839 10.467 15.7119 11.134 14.9949C12.725 24.3969 21.156 29.7749 26.932 26.9119Z" fill="#B8273C"/>
<path d="M11.135 14.9939C11.135 14.9939 12.872 20.7819 18.465 24.3809C24.058 27.9799 26.933 26.9109 26.933 26.9109C26.933 26.9109 23.994 30.2739 19.286 28.9949C14.578 27.7159 9.96502 22.9979 11.135 14.9939Z" fill="#DF518A"/>
<path d="M8.72402 12.3859C7.93402 12.3859 7.21502 12.1969 6.74802 11.9359C6.50002 11.7969 6.41202 11.4829 6.55002 11.2349C6.69002 10.9869 7.00402 10.8989 7.25102 11.0369C7.91602 11.4099 9.65702 11.6669 10.865 10.6139C11.078 10.4269 11.404 10.4489 11.591 10.6639C11.778 10.8779 11.755 11.2039 11.541 11.3899C10.705 12.1189 9.66402 12.3859 8.72402 12.3859Z" fill="#E07721"/>
<path d="M6 6.12689C6.55228 6.12689 7 5.67918 7 5.12689C7 4.57461 6.55228 4.12689 6 4.12689C5.44772 4.12689 5 4.57461 5 5.12689C5 5.67918 5.44772 6.12689 6 6.12689Z" fill="#292F33"/>
<path d="M14.938 8.5439C12.434 7.9559 8.27197 15.6669 13.929 21.9359C21.365 30.1769 26.933 26.9119 26.933 26.9119C26.933 26.9119 22.785 10.3859 14.938 8.5439Z" fill="#E07721"/>
<path d="M11 24.9851V24.4901C11 24.4871 10.9986 24.4842 10.9963 24.4823C8.5971 22.48 7.28707 22.532 5.00358 24.4823C5.00135 24.4842 5 24.4871 5 24.49V24.9851" stroke="#585858"/>
<path d="M6.203 26.1311L4.483 24.8411C4.33308 24.7287 4.4126 24.4901 4.6 24.4901H11.4C11.5874 24.4901 11.6669 24.7287 11.517 24.8411L9.797 26.1311C8.73211 26.9298 7.26789 26.9298 6.203 26.1311Z" fill="#922626" stroke="black" stroke-width="0.01"/>
<path d="M5.83681 25.9623C5.71829 25.9941 5.59643 25.9237 5.56463 25.8052L5.1764 24.3563C5.14464 24.2378 5.17572 24.1839 5.29426 24.1522L5.93819 23.9796C6.05673 23.9479 6.11057 23.9789 6.14234 24.0975L6.53057 25.5464C6.56233 25.6649 6.49197 25.7868 6.37343 25.8186L5.83681 25.9623Z" fill="#C1694F"/>
<path d="M5.87412 24.8136L5.77479 24.4429L6.2041 24.3278L6.1753 24.2205L5.74603 24.3356L5.66992 24.0515L5.56258 24.0803L5.63873 24.3643L5.20941 24.4794L5.23817 24.5867L5.66748 24.4716L5.76681 24.8424L5.87412 24.8136Z" fill="#8A4B38"/>
<path d="M5.79753 26.0304C5.67899 26.0621 5.55712 25.9918 5.52536 25.8732L5.32406 25.122L6.3973 24.8344L6.5986 25.5857C6.63036 25.7042 6.56 25.8261 6.44146 25.8578L5.79753 26.0304Z" fill="#DD2E44"/>
<path d="M5.36559 25.277L5.46058 25.6316L6.40804 24.8745L6.3973 24.8344L6.35086 24.7478L5.36559 25.277Z" fill="#BE1931"/>
<path d="M6.3542 24.6734L6.3973 24.8344C6.30434 24.9169 5.55696 25.3472 5.41032 25.4439C5.41032 25.4439 5.31739 25.5263 5.28141 25.3922L5.17356 24.9897C5.15975 24.9382 5.2001 24.8676 5.25211 24.8536L6.21809 24.5948C6.3254 24.5661 6.3542 24.6734 6.3542 24.6734Z" fill="#CCD6DD"/>
<path d="M6.76441 26.3196C6.4733 26.3523 6.45093 26.7153 6.60518 26.7623L6.89205 26.8338L6.95352 27.123C6.99507 27.2788 7.35858 27.269 7.40149 26.9793L7.43373 26.7621C7.47665 26.4724 7.2737 26.2622 6.98266 26.295L6.76441 26.3196ZM8.14165 24.9895C8.18456 24.6997 8.54821 24.69 8.58969 24.8458L8.65117 25.135L8.9381 25.2066C9.09229 25.2535 9.06984 25.6165 8.7788 25.6492L8.56055 25.6738C8.26951 25.7066 8.06649 25.4964 8.10948 25.2067L8.14165 24.9895Z" fill="#DD2E44"/>
<path d="M8.12262 25.1175L8.10948 25.2067C8.06649 25.4964 8.26951 25.7066 8.56055 25.6738L8.6081 25.6684C8.59101 25.5525 8.52429 25.421 8.41476 25.3075C8.32456 25.214 8.22088 25.1493 8.12262 25.1175ZM7.42998 26.7869L7.43373 26.7621C7.47665 26.4724 7.2737 26.2622 6.98266 26.295L6.91761 26.3023C6.94783 26.3967 7.0072 26.4962 7.09257 26.5845C7.19685 26.6926 7.31898 26.7622 7.42998 26.7869Z" fill="#BE1931"/>
<path d="M8.51291 25.9593C8.52023 25.54 8.18627 25.1942 7.767 25.1869C7.34773 25.1795 7.00191 25.5135 6.99459 25.9328C6.98727 26.352 7.32122 26.6979 7.7405 26.7052C8.15977 26.7125 8.50559 26.3785 8.51291 25.9593Z" fill="#DD2E44"/>
<path d="M7.7307 25.9478C7.94095 25.9236 8.21031 26.0012 8.37551 26.1439C8.39438 26.0843 8.40481 26.0218 8.40593 25.9575C8.40684 25.9054 8.40096 25.8543 8.38999 25.8047C8.20637 25.7613 7.96785 25.7791 7.7307 25.9478ZM7.7307 25.9478C7.7802 25.7057 7.97266 25.5076 8.20128 25.4726C8.09958 25.3763 7.97223 25.3159 7.83428 25.2989C7.69733 25.4292 7.59953 25.6443 7.7307 25.9478ZM7.7307 25.9478C7.57028 25.8702 7.42711 25.621 7.42412 25.3837C7.37996 25.4097 7.33829 25.4404 7.30051 25.4769C7.24488 25.5306 7.20167 25.5922 7.16937 25.6579C7.25487 25.8286 7.42377 25.9798 7.7307 25.9478Z" fill="#F5F8FA"/>
<path d="M7.73373 25.9448C7.62467 26.1432 7.3688 26.2647 7.15656 26.2068C7.18672 26.2762 7.22886 26.3417 7.28439 26.3992C7.32382 26.4401 7.36772 26.4739 7.41407 26.5022C7.5553 26.4129 7.69166 26.2394 7.73373 25.9448ZM7.73363 25.9508C7.8414 26.1359 7.89629 26.3979 7.84244 26.5913C7.95257 26.5765 8.05948 26.5337 8.15191 26.4623C8.10426 26.2922 7.97981 26.0982 7.73363 25.9508Z" fill="#F5F8FA"/>
<path d="M11.2568 25.6653C11.2913 25.616 11.2793 25.5481 11.23 25.5137L9.93669 24.608C9.88739 24.5735 9.81949 24.5855 9.78497 24.6348C9.75051 24.684 9.76248 24.7519 9.81171 24.7864L11.1052 25.692C11.1544 25.7266 11.2223 25.7146 11.2568 25.6653Z" fill="#FFAC33"/>
<path d="M10.0385 25.4702C10.453 25.3971 10.7299 25.0018 10.6568 24.5872C10.5837 24.1727 10.1883 23.8958 9.77379 23.9689C9.35919 24.042 9.08241 24.4374 9.15551 24.8519C9.22861 25.2665 9.6239 25.5433 10.0385 25.4702Z" fill="#DD2E44"/>
<path d="M10.6657 24.7735C10.6567 24.6928 10.6338 24.6134 10.596 24.5388C10.5129 24.3754 10.3713 24.2542 10.1971 24.1973C10.0605 24.1528 9.9147 24.164 9.78662 24.2291C9.65852 24.2942 9.56342 24.4052 9.51886 24.5419C9.48406 24.6485 9.49287 24.7621 9.54364 24.8619C9.59432 24.9618 9.68095 25.036 9.78749 25.0707C9.86991 25.0976 9.9579 25.0908 10.0352 25.0515C10.1126 25.0123 10.17 24.9453 10.1968 24.8628C10.2174 24.7996 10.2123 24.7322 10.1821 24.6729C10.1521 24.6137 10.1006 24.5697 10.0374 24.5491C9.93878 24.5169 9.83233 24.571 9.80014 24.6696C9.78851 24.705 9.7914 24.7429 9.80838 24.7762C9.81444 24.7881 9.82205 24.799 9.83095 24.8085C9.80658 24.7749 9.79802 24.7305 9.81181 24.6881C9.83816 24.6075 9.92514 24.5633 10.0058 24.5896C10.0511 24.6044 10.088 24.636 10.1097 24.6785C10.1313 24.7211 10.1351 24.7695 10.1202 24.8149C10.0843 24.9248 9.96572 24.9851 9.85577 24.9492C9.79262 24.9287 9.74132 24.8847 9.71131 24.8255C9.68119 24.7663 9.67597 24.699 9.69659 24.6358C9.74744 24.4801 9.91545 24.3948 10.0712 24.4456C10.162 24.4752 10.2359 24.5385 10.2792 24.6237C10.3224 24.7088 10.3299 24.8058 10.3003 24.8966C10.2644 25.0067 10.1877 25.0963 10.0844 25.1487C9.98118 25.2011 9.8637 25.2102 9.75364 25.1743C9.6195 25.1306 9.51033 25.0371 9.44641 24.9113C9.38246 24.7854 9.37138 24.6422 9.41525 24.5081C9.46882 24.3438 9.58314 24.2103 9.73722 24.132C9.89132 24.0538 10.0666 24.0402 10.2308 24.0938C10.3338 24.1274 10.4267 24.1806 10.5061 24.2496C10.5809 24.345 10.6343 24.4595 10.6568 24.5872C10.668 24.6502 10.67 24.7125 10.6657 24.7735ZM9.96643 24.8221C9.96327 24.8317 9.95766 24.8399 9.95058 24.8462C9.98087 24.8368 10.0063 24.8134 10.0168 24.7811C10.0226 24.7633 10.0211 24.7444 10.0127 24.7278C10.0042 24.7112 9.98987 24.6988 9.9721 24.693C9.94857 24.6853 9.92316 24.6983 9.91546 24.7218C9.91414 24.7258 9.91391 24.73 9.9146 24.7339C9.91616 24.7427 9.92238 24.7505 9.93147 24.7535C9.96014 24.7628 9.97582 24.7935 9.96643 24.8221Z" fill="#F4900C"/>
<path d="M9.70147 25.3443C9.49638 25.292 9.24241 25.0802 9.15378 24.7769C9.15048 24.7655 9.14789 24.754 9.1451 24.7427C9.13882 24.5407 9.21294 24.3503 9.34271 24.2074C9.22165 24.4195 9.23223 24.6091 9.27101 24.7426C9.34681 25.002 9.5601 25.1821 9.73164 25.2259C9.99438 25.2929 10.2627 25.1336 10.3296 24.8709C10.3548 24.7723 10.34 24.6697 10.288 24.5822C10.2361 24.4947 10.1531 24.4326 10.0545 24.4074C9.89812 24.3676 9.73843 24.4623 9.69852 24.6186C9.66832 24.7372 9.74023 24.8584 9.85879 24.8886C9.93267 24.9074 10.0078 24.8731 10.0437 24.8097C10.0314 24.8267 10.0158 24.8411 9.99721 24.8521C9.96187 24.873 9.9205 24.879 9.88069 24.8689C9.83491 24.8572 9.79632 24.8284 9.77223 24.7877C9.74807 24.747 9.7412 24.6994 9.75293 24.6537C9.76649 24.6003 9.80004 24.5554 9.84732 24.5274C9.89466 24.4993 9.95007 24.4913 10.0034 24.5049C10.0661 24.5208 10.1188 24.5603 10.1518 24.6159C10.1849 24.6716 10.1942 24.7368 10.1783 24.7994C10.1391 24.9529 9.98223 25.0461 9.8286 25.0069C9.64484 24.9601 9.53352 24.7722 9.58021 24.5884C9.6368 24.3668 9.86314 24.2325 10.0848 24.289C10.2151 24.3223 10.3246 24.4042 10.3931 24.5198C10.4248 24.5731 10.4459 24.6304 10.4563 24.6895C10.4686 24.7589 10.466 24.8308 10.4481 24.9011C10.3643 25.229 10.0295 25.4279 9.70147 25.3443ZM9.93479 24.747C9.94204 24.7427 9.9472 24.7358 9.94933 24.7277C9.95761 24.695 9.99086 24.6753 10.0236 24.6836C10.0392 24.6875 10.0518 24.6971 10.0599 24.7097C10.057 24.6988 10.0526 24.6883 10.0468 24.6783C10.0304 24.6507 10.0042 24.6311 9.97316 24.6232C9.95148 24.6177 9.92893 24.6209 9.90968 24.6324C9.89048 24.6438 9.87677 24.6621 9.87131 24.6838C9.86932 24.6915 9.86907 24.6993 9.8704 24.7069C9.87154 24.7133 9.87382 24.7196 9.87727 24.7253C9.88479 24.7379 9.89663 24.7468 9.91092 24.7505C9.91907 24.7525 9.92754 24.7513 9.93479 24.747Z" fill="#FFCC4D"/>
<path d="M12.7553 26.1628L12.363 28.9087C12.1522 30.3842 10.8886 31.4801 9.39811 31.4801H6.60189C5.11142 31.4801 3.84777 30.3841 3.63699 28.9087L3.24472 26.1628C3.1186 25.28 3.80365 24.4901 4.69546 24.4901C4.88913 24.4901 5.07486 24.567 5.21181 24.704L5.87514 25.3673C7.04867 26.5408 8.95133 26.5408 10.1249 25.3673L10.7882 24.704C10.9251 24.567 11.1109 24.4901 11.3045 24.4901C12.1963 24.4901 12.8814 25.28 12.7553 26.1628Z" fill="#E03E3E" stroke="black" stroke-width="0.01"/>
</svg>
