<svg width="33" height="41" viewBox="0 0 33 41" fill="none" xmlns="http://www.w3.org/2000/svg">
<path d="M15.5 41C15.372 41 15.244 40.951 15.146 40.854C14.951 40.659 14.951 40.342 15.146 40.147L17 38.293V35.5C17 35.224 17.224 35 17.5 35C17.776 35 18 35.224 18 35.5V38.707L15.854 40.853C15.756 40.951 15.628 41 15.5 41Z" fill="#66757F"/>
<path d="M17.5 39H14.5C14.224 39 14 38.776 14 38.5C14 38.224 14.224 38 14.5 38H17.5C17.776 38 18 38.224 18 38.5C18 38.776 17.776 39 17.5 39ZM20.5 41C20.372 41 20.244 40.951 20.146 40.854C19.951 40.659 19.951 40.342 20.146 40.147L22 38.293V35.5C22 35.224 22.224 35 22.5 35C22.776 35 23 35.224 23 35.5V38.707L20.854 40.853C20.756 40.951 20.628 41 20.5 41Z" fill="#66757F"/>
<path d="M22.5 39H19.5C19.224 39 19 38.776 19 38.5C19 38.224 19.224 38 19.5 38H22.5C22.776 38 23 38.224 23 38.5C23 38.776 22.776 39 22.5 39Z" fill="#66757F"/>
<path d="M1.53001 19.798C2.37501 20.25 5.34301 18.387 5.89001 16.49C6.43701 14.593 4.86901 14.374 3.00801 15.25C1.14701 16.126 0.800013 19.407 1.53001 19.798Z" fill="#F4900C"/>
<path d="M4.32498 9.99999C1.76998 11 0.0469765 13.378 0.0309765 16.088C0.0149765 18.787 1.24998 20.511 2.62498 20.135C3.00098 20.032 2.32198 18.213 3.47498 15.764C4.04498 14.557 4.77798 14.414 5.14998 14.451C5.52298 14.487 5.59298 9.50399 4.32498 9.99999Z" fill="#FFAC33"/>
<path d="M32.525 37.384C32.511 37.883 30.609 38.206 26.933 33.785C24.006 36.875 19.559 36.967 15.112 35.207C10.113 33.228 6.72899 28.283 7.41099 21.231C7.79299 17.277 2.18299 17.644 2.32999 12.332C2.44099 8.33699 5.84299 6.79699 8.70399 6.87599C13.444 7.00699 15.524 12.169 16.756 13.437C23.25 20.125 32.566 35.907 32.525 37.384Z" fill="#D94141"/>
<path d="M26.932 33.785C24.005 36.875 19.558 36.967 15.111 35.207C10.112 33.228 6.72799 28.283 7.40999 21.231C7.44599 25.574 8.96899 28.813 10.35 29.647C9.76999 26.857 10.467 22.585 11.134 21.868C12.725 31.27 21.156 36.648 26.932 33.785Z" fill="#EA596E"/>
<path d="M11.135 21.867C11.135 21.867 12.872 27.655 18.465 31.254C24.058 34.853 26.933 33.784 26.933 33.784C26.933 33.784 23.994 37.147 19.286 35.868C14.578 34.589 9.96502 29.871 11.135 21.867Z" fill="#509448"/>
<path d="M14.938 15.417C12.434 14.829 8.27197 22.54 13.929 28.809C21.365 37.05 26.933 33.785 26.933 33.785C26.933 33.785 22.785 17.259 14.938 15.417Z" fill="#A61B1B"/>
<path d="M6 13C6.55228 13 7 12.5523 7 12C7 11.4477 6.55228 11 6 11C5.44772 11 5 11.4477 5 12C5 12.5523 5.44772 13 6 13Z" fill="#292F33"/>
<path d="M8.72402 19.259C7.93402 19.259 7.21502 19.07 6.74802 18.809C6.50002 18.67 6.41202 18.356 6.55002 18.108C6.69002 17.86 7.00402 17.772 7.25102 17.91C7.91602 18.283 9.65702 18.54 10.865 17.487C11.078 17.3 11.404 17.322 11.591 17.537C11.778 17.751 11.755 18.077 11.541 18.263C10.705 18.992 9.66402 19.259 8.72402 19.259Z" fill="#A61B1B"/>
<path d="M4 7C5.09225 4.28735 6.60501 3.03809 9.86209 1.3295C10.0414 1.23543 10.2335 1.44113 10.1356 1.61839C9.03608 3.60887 9.14045 4.88847 11 7H4Z" fill="#E03E3E" stroke="black" stroke-opacity="0.5" stroke-width="0.01"/>
<path d="M3 8C3 7.44772 3.44772 7 4 7H11C11.5523 7 12 7.44772 12 8C12 8.55228 11.5523 9 11 9H4C3.44772 9 3 8.55228 3 8Z" fill="white"/>
<path d="M4 7.005H11C11.5495 7.005 11.995 7.45048 11.995 8C11.995 8.54952 11.5495 8.995 11 8.995H4C3.45048 8.995 3.005 8.54952 3.005 8C3.005 7.45048 3.45048 7.005 4 7.005Z" stroke="black" stroke-opacity="0.5" stroke-width="0.01"/>
<path d="M9 1C9 0.447715 9.44772 0 10 0C10.5523 0 11 0.447715 11 1C11 1.55228 10.5523 2 10 2C9.44772 2 9 1.55228 9 1Z" fill="white"/>
<path d="M10 1.995C9.45048 1.995 9.005 1.54952 9.005 1C9.005 0.450477 9.45048 0.005 10 0.005C10.5495 0.005 10.995 0.450477 10.995 1C10.995 1.54952 10.5495 1.995 10 1.995Z" stroke="black" stroke-opacity="0.5" stroke-width="0.01"/>
</svg>
