<svg xmlns="http://www.w3.org/2000/svg" width="150" height="150" viewBox="0 0 400 400" version="1.1"><path d="M 113.696 81.752 C 68.704 126.713, 31.474 164.175, 30.962 165 C 28.669 168.693, 29.894 172.970, 34.750 178.234 C 44.738 189.061, 48.378 191.518, 52.939 190.510 C 54.597 190.143, 81.551 164.047, 129.409 116.472 C 170.059 76.062, 203.752 43, 204.282 43 C 204.812 43, 238.318 75.881, 278.741 116.070 C 319.163 156.258, 353.386 189.576, 354.792 190.111 C 359.346 191.843, 362.461 190.188, 370.873 181.571 C 384.214 167.903, 392.983 179.516, 296.258 82.764 L 213.516 0 204.508 0.002 L 195.500 0.004 113.696 81.752 M 197.500 155.088 C 177.335 157.703, 161.821 171.855, 156.530 192.460 C 150.902 214.379, 162.297 237.555, 183.734 247.792 C 191.419 251.461, 191.632 251.500, 204.075 251.500 L 216.651 251.500 225.139 247.294 C 240.212 239.825, 249.680 226.578, 252.171 209.473 C 253.529 200.146, 251.973 191.053, 247.340 181.244 C 238.908 163.392, 218.013 152.427, 197.500 155.088 M 198.353 286.870 C 192.192 290.737, 191.565 300.773, 197.189 305.506 C 203.579 310.882, 214.337 306.920, 215.014 298.940 C 215.446 293.849, 214.918 291.940, 212.250 288.954 C 208.635 284.909, 202.858 284.042, 198.353 286.870 M 63.775 367.559 C 58.067 370.657, 57.153 378.307, 61.923 383.077 L 64.846 386 204.500 386 L 344.154 386 347.077 383.077 C 351.983 378.170, 350.630 370.346, 344.316 367.117 C 342.737 366.310, 303.921 366.011, 204.316 366.040 C 84.642 366.075, 66.141 366.275, 63.775 367.559" stroke="none" fill="#d04128" fill-rule="evenodd"/><path d="M 164.494 30.250 L 134.500 60.500 164.750 30.506 C 181.387 14.010, 195 0.397, 195 0.256 C 195 -0.450, 192.368 2.138, 164.494 30.250 M 244 30.500 C 259.668 46.175, 272.712 59, 272.987 59 C 273.262 59, 260.668 46.175, 245 30.500 C 229.332 14.825, 216.288 2, 216.013 2 C 215.738 2, 228.332 14.825, 244 30.500 M 142.695 103.261 L 82 163.594 82 264.797 L 82 366 204.500 366 L 327 366 327 265.266 L 327 164.533 338.250 175.618 C 344.438 181.715, 317.166 154.483, 277.647 115.102 C 238.127 75.721, 205.253 43.371, 204.592 43.214 C 203.931 43.057, 176.077 70.078, 142.695 103.261 M 325 111.500 C 353.321 139.825, 376.718 163, 376.993 163 C 377.268 163, 354.321 139.825, 326 111.500 C 297.679 83.175, 274.282 60, 274.007 60 C 273.732 60, 296.679 83.175, 325 111.500 M 128 66.500 C 125.571 68.975, 123.809 71, 124.084 71 C 124.359 71, 126.571 68.975, 129 66.500 C 131.429 64.025, 133.191 62, 132.916 62 C 132.641 62, 130.429 64.025, 128 66.500 M 106.500 88 C 98.264 96.250, 91.750 103, 92.025 103 C 92.300 103, 99.264 96.250, 107.500 88 C 115.736 79.750, 122.250 73, 121.975 73 C 121.700 73, 114.736 79.750, 106.500 88 M 75.987 118.750 L 61.500 133.500 76.250 119.013 C 89.952 105.555, 91.453 104, 90.737 104 C 90.592 104, 83.955 110.638, 75.987 118.750 M 55.453 139.250 L 51.500 143.500 55.750 139.547 C 59.702 135.871, 60.460 135, 59.703 135 C 59.540 135, 57.627 136.912, 55.453 139.250 M 44.453 150.250 L 40.500 154.500 44.750 150.547 C 48.702 146.871, 49.460 146, 48.703 146 C 48.540 146, 46.627 147.912, 44.453 150.250 M 197.500 155.088 C 177.335 157.703, 161.821 171.855, 156.530 192.460 C 150.902 214.379, 162.297 237.555, 183.734 247.792 C 191.419 251.461, 191.632 251.500, 204.075 251.500 L 216.651 251.500 225.139 247.294 C 240.212 239.825, 249.680 226.578, 252.171 209.473 C 253.529 200.146, 251.973 191.053, 247.340 181.244 C 238.908 163.392, 218.013 152.427, 197.500 155.088 M 34.453 160.250 L 30.500 164.500 34.750 160.547 C 37.087 158.373, 39 156.460, 39 156.297 C 39 155.540, 38.129 156.298, 34.453 160.250 M 34.500 179 C 36.648 181.200, 38.631 183, 38.906 183 C 39.181 183, 37.648 181.200, 35.500 179 C 33.352 176.800, 31.369 175, 31.094 175 C 30.819 175, 32.352 176.800, 34.500 179 M 369.971 182.750 L 363.500 189.500 370.250 183.029 C 376.520 177.018, 377.457 176, 376.721 176 C 376.568 176, 373.530 179.037, 369.971 182.750 M 60.924 184.750 L 58.500 187.500 61.250 185.076 C 63.820 182.810, 64.459 182, 63.674 182 C 63.495 182, 62.258 183.238, 60.924 184.750 M 42 186.500 C 43.292 187.875, 44.574 189, 44.849 189 C 45.124 189, 44.292 187.875, 43 186.500 C 41.708 185.125, 40.426 184, 40.151 184 C 39.876 184, 40.708 185.125, 42 186.500 M 198.353 286.870 C 192.192 290.737, 191.565 300.773, 197.189 305.506 C 203.579 310.882, 214.337 306.920, 215.014 298.940 C 215.446 293.849, 214.918 291.940, 212.250 288.954 C 208.635 284.909, 202.858 284.042, 198.353 286.870 M 58.195 375.500 C 58.215 377.150, 58.439 377.704, 58.693 376.731 C 58.947 375.758, 58.930 374.408, 58.656 373.731 C 58.382 373.054, 58.175 373.850, 58.195 375.500 M 135.828 386.750 C 173.959 386.895, 236.059 386.895, 273.828 386.750 C 311.598 386.605, 280.400 386.486, 204.500 386.486 C 128.600 386.486, 97.698 386.605, 135.828 386.750" stroke="none" fill="#fab76c" fill-rule="evenodd"/></svg>